<?xml version="1.0" encoding="utf-8"?>
<!-- Generator: Adobe Illustrator 18.0.0, SVG Export Plug-In . SVG Version: 6.00 Build 0)  -->
<!DOCTYPE svg PUBLIC "-//W3C//DTD SVG 1.1//EN" "http://www.w3.org/Graphics/SVG/1.1/DTD/svg11.dtd">
<svg version="1.1" id="Layer_1" xmlns="http://www.w3.org/2000/svg" xmlns:xlink="http://www.w3.org/1999/xlink" x="0px" y="0px"
	width="170px" height="52px"
	 viewBox="-6.9 -1.9 170 52.2" enable-background="new -6.9 -1.9 170 52.2" xml:space="preserve">
<g>
	<g>
		<g>
			<g>
				<path fill="#FFFFFF" d="M163.1,27.9c0-3-1.2-5.7-3.3-7.9c-2.1-2.1-4.9-3.3-7.9-3.3h-135h-1.6v1.6v20.8c0,3,1.2,5.8,3.3,7.9
					s4.9,3.3,7.9,3.3h135h1.6v-1.6V27.9L163.1,27.9z"/>
				<path fill="#1E4485" d="M161.4,48.7h-135c-5.3,0-9.5-4.2-9.5-9.5V18.4h135c5.3,0,9.5,4.3,9.5,9.5L161.4,48.7L161.4,48.7z"/>
				<path fill="#FFFFFF" d="M61.5,40.9c-1.1,1.2-2.3,1.9-3.8,1.9c-2.4,0-4.2-1.5-4.2-4.6v-7.9h3.3v7.4c0,1.8,0.8,2.9,2.3,2.9
					c1.1,0,2.4-0.8,2.4-3v-7.3h3.3v12.2h-3.3C61.5,42.4,61.5,40.9,61.5,40.9z"/>
				<path fill="#FFFFFF" d="M125.9,31.6c1.1-1.2,2.6-1.8,4.2-1.8c2.4,0,4.4,1.5,4.4,4.6v7.9h-3.3V35c0-1.8-1-2.9-2.6-2.9
					c-1.1,0-2.6,0.8-2.6,3v7.3h-3.3V30.1h3.3C125.9,30.1,125.9,31.6,125.9,31.6z"/>
				<path fill="#FFFFFF" d="M71.7,32.3L71.7,32.3c0,0,1.3-2.4,2.7-2.4c0.8,0,1.5,0.4,2.2,1.1l-1.2,2.3c-0.5-0.2-0.9-0.4-1.5-0.4
					c-1.1,0-2.2,0.9-2.2,3.5v6h-3.3V30.1h3.3V32.3L71.7,32.3z"/>
				<polygon fill="#FFFFFF" points="138.3,24.4 141.5,24.4 141.5,34.9 141.7,34.9 146,29.9 148.9,29.9 144.3,35.5 149.9,42.4 
					146.2,42.4 141.6,35.9 141.5,35.9 141.5,42.4 138.3,42.4 				"/>
				<path fill="#FFFFFF" d="M46.8,40.1c-2.4,0-3.1-0.9-3.1-2.3v-3.2h5.6v-2.3h-5.6v-4.7h5.8v-2.3h-9.2V38c0,2.3,1.2,4.3,4,4.3h6.4
					V40h-3.8V40.1z"/>
				<path fill="#FFFFFF" d="M112.2,42.7c-2.6,0-4-1.6-4-3.4c0-2.7,1.6-4,4.5-4.7l2.9-0.9c-0.1-1.1-1.1-1.9-2.2-1.9
					c-1.4,0-2.4,0.5-3.2,1.3l-1.1-1.5c1.5-1.3,3-1.6,4.7-1.6c2.3,0,5.1,0.8,5.1,4.5v4.9c0,1.2,0.1,2.1,0.5,3h-3.5
					c-0.2-0.5-0.2-1.1-0.3-1.8C115.6,40.6,114.3,42.7,112.2,42.7 M84.1,42.7c3.5,0,6.4-2.9,6.4-6.4c0-3.5-2.9-6.5-6.4-6.5
					c-3.5,0-6.5,2.9-6.5,6.5C77.7,39.8,80.5,42.7,84.1,42.7 M100.5,29.9c-1.5,0-2.9,0.8-3.8,2l0,0v-7.5h-3.3v18h3.3v-1.5
					c1,1.1,2.4,1.9,3.8,1.9c3,0,5.5-2.9,5.5-6.4C105.9,32.7,103.5,29.9,100.5,29.9 M113.9,35.9c-1.5,0.4-2.4,1.4-2.4,2.9
					c0,1.1,0.7,1.8,1.4,1.8c1.4,0,2.9-1.4,2.7-5.2L113.9,35.9z M84.1,31.6c1.8,0,3,1.5,3,4.6c0,3.1-1.2,4.6-3,4.6s-3-1.5-3-4.6
					C81.1,33.3,82.3,31.6,84.1,31.6 M99.7,31.6c1.8,0,3,1.5,3,4.6c0,3.1-1.2,4.6-3,4.6s-3-1.5-3-4.6C96.6,33.3,97.9,31.6,99.7,31.6"
					/>
				<g>
					<path fill="#FFFFFF" d="M13.5,38.8c11.2,0,20.3-9.1,20.3-20.3S24.7-1.9,13.5-1.9S-6.9,7.2-6.9,18.4S2.2,38.8,13.5,38.8"/>
				</g>
			</g>
		</g>
	</g>
	<path fill="#D2242A" d="M-5.1,18.4c0,10.3,8.4,18.7,18.7,18.7s18.7-8.4,18.7-18.7S23.9-0.3,13.6-0.3C3.1-0.2-5.1,8.1-5.1,18.4"/>
	<path fill="#FFFFFF" d="M15.8,5.2C15.5,5.1,15.2,5,15,4.9C12.8,4,10.3,5.1,8.7,7.4L0.3,20c-1.3,1.9-1.1,4.5,0.7,6.2
		c1,1,2.2,1.4,3.5,1.4h20.1l-4-4.6H3.8L15.8,5.2z"/>
	<path fill="#FFFFFF" d="M18.3,15.5l-2.7,4.3H9.9l7.8-12.1L26.7,18c2.2,2.4,1.9,5.3,0.3,7.5L18.3,15.5z"/>
</g>
</svg>
